# Blender v3.2.2 OBJ File: 'Dungeon Voxel Assets.blend'
# www.blender.org
mtllib Wall_Ext_SemiBrick.mtl
o Wall_Ext_SemiBrick_Wall_Ext_SemiBrick.001
v -1.550000 -1.508696 0.134783
v -1.550000 -1.208696 0.034783
v -1.550000 -0.908696 -0.065218
v -1.550000 -0.908696 0.034783
v -1.550000 -0.408696 0.034783
v -1.550000 -0.308696 0.034783
v -1.550000 0.291304 0.034783
v -1.550000 0.491304 0.034783
v -1.550000 0.591304 0.034783
v -1.550000 1.291304 0.234784
v -1.550000 1.191304 0.234784
v -1.550000 1.391304 0.434783
v -1.550000 1.491304 -1.065217
v 1.550000 -1.608696 0.134783
v 1.550000 -1.508696 0.134783
v 1.550000 -1.608696 -1.065218
v 1.550000 -1.308696 -0.065218
v 1.550000 -1.208696 0.034783
v 1.550000 -0.908696 -0.065218
v 1.550000 -0.708696 -0.065218
v 1.550000 -0.408696 0.034783
v 1.550000 -0.408696 -0.065218
v 1.550000 -0.108696 0.034783
v 1.550000 -0.008696 -0.065218
v 1.550000 -0.008696 0.034783
v 1.550000 0.191304 -0.065218
v 1.550000 0.291304 -0.065218
v 1.550000 0.291304 0.034783
v 1.550000 0.891304 0.034783
v 1.550000 1.191304 0.134783
v 1.550000 1.391304 0.434783
v 1.550000 1.491304 0.434783
v 1.550000 1.491304 -1.065217
v -1.550000 1.291304 0.334782
v 1.550000 1.291304 0.334782
v 1.550000 1.191304 0.234784
v -1.550000 -1.608696 0.134783
v -1.550000 1.191304 0.134783
v 1.550000 1.091304 0.134783
v -1.550000 -1.008696 0.034783
v -1.550000 -0.708696 0.034783
v -1.550000 -0.108696 0.034783
v -1.550000 0.191304 0.034783
v -1.550000 0.791304 0.034783
v 1.550000 -1.508696 0.034782
v 1.550000 -1.308696 0.034783
v 1.550000 -0.608696 0.034783
v 1.550000 -0.308696 0.034783
v 1.550000 0.191304 0.034783
v 1.550000 1.091304 0.034783
v -1.550000 -1.208696 -0.065218
v -1.550000 -0.608696 -0.065218
v -1.550000 -0.708696 -0.065218
v -1.550000 -0.408696 -0.065218
v -1.550000 -0.008696 -0.065218
v -1.550000 0.291304 -0.065218
v -1.550000 0.191304 -0.065218
v -1.550000 0.591304 -0.065218
v -1.550000 0.491304 -0.065218
v -1.550000 0.891304 -0.065218
v 1.550000 0.491304 -0.065218
v 1.550000 0.591304 -0.065218
v 1.550000 0.891304 -0.065218
v -1.550000 -1.608696 -1.065218
v 1.550000 -1.208696 -0.065218
v 1.550000 -0.908696 0.034783
v -1.550000 -0.608696 0.034783
v 1.550000 -0.608696 -0.065218
v -1.550000 -0.308696 -0.065218
v 1.550000 -0.308696 -0.065218
v -1.550000 -0.008696 0.034783
v 1.550000 0.591304 0.034783
v -1.550000 0.891304 0.034783
v -1.550000 1.091304 0.034783
v -1.550000 1.091304 0.134783
v 1.550000 1.291304 0.234784
v -1.550000 1.391304 0.334782
v 1.550000 1.391304 0.334782
v -1.550000 -1.508696 0.034782
v -1.550000 -1.308696 0.034783
v -1.550000 -1.308696 -0.065218
v -1.550000 -1.008696 -0.065218
v 1.550000 -1.008696 0.034783
v 1.550000 -1.008696 -0.065218
v 1.550000 -0.708696 0.034783
v -1.550000 -0.108696 -0.065218
v 1.550000 -0.108696 -0.065218
v 1.550000 0.491304 0.034783
v -1.550000 0.791304 -0.065218
v 1.550000 0.791304 0.034783
v 1.550000 0.791304 -0.065218
v -1.550000 1.491304 0.434783
vt 0.650099 0.437948
vt 0.438265 0.437948
vt 0.438265 0.000159
vt 0.607733 0.000159
vt 0.607733 0.014281
vt 0.593611 0.014281
vt 0.593611 0.042526
vt 0.579489 0.042526
vt 0.579489 0.056648
vt 0.593611 0.056648
vt 0.593611 0.084892
vt 0.579489 0.084892
vt 0.579489 0.099015
vt 0.593611 0.099015
vt 0.593611 0.127259
vt 0.579489 0.127259
vt 0.579489 0.141381
vt 0.593611 0.141381
vt 0.593611 0.169626
vt 0.579489 0.169626
vt 0.579489 0.183748
vt 0.593611 0.183748
vt 0.593611 0.211992
vt 0.579489 0.211992
vt 0.579489 0.226115
vt 0.593611 0.226115
vt 0.593611 0.254359
vt 0.579489 0.254359
vt 0.579489 0.268481
vt 0.593611 0.268481
vt 0.593611 0.296726
vt 0.579489 0.296726
vt 0.579489 0.310848
vt 0.593611 0.310848
vt 0.593611 0.339093
vt 0.579489 0.339093
vt 0.579489 0.353215
vt 0.593611 0.353215
vt 0.593611 0.381459
vt 0.607733 0.381459
vt 0.607733 0.395582
vt 0.621855 0.395582
vt 0.621855 0.409704
vt 0.635977 0.409704
vt 0.635977 0.423826
vt 0.650099 0.423826
vt 0.410340 0.438266
vt 0.410340 0.876055
vt 0.382095 0.876055
vt 0.382095 0.438266
vt 0.467464 0.438266
vt 0.467464 0.876055
vt 0.439220 0.876055
vt 0.439220 0.438266
vt 0.826560 0.438266
vt 0.826560 0.876055
vt 0.812438 0.876055
vt 0.812438 0.438266
vt 0.000158 0.876055
vt 0.000158 0.861933
vt 0.014280 0.861933
vt 0.014280 0.847811
vt 0.028402 0.847811
vt 0.028402 0.833689
vt 0.042526 0.833689
vt 0.042526 0.819566
vt 0.056648 0.819566
vt 0.056648 0.791322
vt 0.070770 0.791322
vt 0.070770 0.777200
vt 0.056648 0.777200
vt 0.056648 0.748955
vt 0.070770 0.748955
vt 0.070770 0.734833
vt 0.056648 0.734833
vt 0.056648 0.706589
vt 0.070770 0.706589
vt 0.070770 0.692466
vt 0.056648 0.692466
vt 0.056648 0.664222
vt 0.070770 0.664222
vt 0.070770 0.650100
vt 0.056648 0.650100
vt 0.056648 0.621855
vt 0.070770 0.621855
vt 0.070770 0.607733
vt 0.056648 0.607733
vt 0.056648 0.579488
vt 0.070770 0.579488
vt 0.070770 0.565366
vt 0.056648 0.565366
vt 0.056648 0.537122
vt 0.070770 0.537122
vt 0.070770 0.523000
vt 0.056648 0.523000
vt 0.056648 0.494755
vt 0.070770 0.494755
vt 0.070770 0.480633
vt 0.056648 0.480633
vt 0.056648 0.452388
vt 0.042526 0.452388
vt 0.042526 0.438266
vt 0.211992 0.438266
vt 0.211992 0.876055
vt 0.977772 0.437948
vt 0.963650 0.437948
vt 0.963650 0.000159
vt 0.977772 0.000159
vt 0.985718 0.876055
vt 0.985718 0.438266
vt 0.999840 0.438266
vt 0.999840 0.876055
vt 0.985401 0.438266
vt 0.985401 0.876055
vt 0.971279 0.876055
vt 0.971279 0.438266
vt 0.920012 0.000159
vt 0.920011 0.437948
vt 0.905889 0.437948
vt 0.905889 0.000159
vt 0.970961 0.876055
vt 0.956839 0.876055
vt 0.956839 0.438266
vt 0.970961 0.438266
vt 0.963332 0.437948
vt 0.949210 0.437948
vt 0.949210 0.000159
vt 0.963332 0.000159
vt 0.496027 0.876055
vt 0.467782 0.876055
vt 0.467782 0.438266
vt 0.496027 0.438266
vt 0.812120 0.438266
vt 0.812120 0.876055
vt 0.797997 0.876055
vt 0.797997 0.438266
vt 0.638838 0.438266
vt 0.638838 0.876055
vt 0.610594 0.876055
vt 0.610594 0.438266
vt 0.942081 0.876055
vt 0.927959 0.876055
vt 0.927959 0.438266
vt 0.942081 0.438266
vt 0.000159 0.000159
vt 0.437948 0.000159
vt 0.437948 0.437948
vt 0.000159 0.437948
vt 0.581714 0.876055
vt 0.553469 0.876055
vt 0.553469 0.438266
vt 0.581714 0.438266
vt 0.934452 0.437948
vt 0.920329 0.437948
vt 0.920329 0.000159
vt 0.934452 0.000159
vt 0.682476 0.438266
vt 0.696598 0.438266
vt 0.696598 0.876055
vt 0.682476 0.876055
vt 0.212309 0.876055
vt 0.212309 0.438266
vt 0.381777 0.438266
vt 0.381777 0.876055
vt 0.553151 0.876055
vt 0.524907 0.876055
vt 0.524907 0.438266
vt 0.553151 0.438266
vt 0.956521 0.876055
vt 0.942399 0.876055
vt 0.942399 0.438266
vt 0.956521 0.438266
vt 0.768799 0.876055
vt 0.754677 0.876055
vt 0.754677 0.438266
vt 0.768799 0.438266
vt 0.769117 0.438266
vt 0.783239 0.438266
vt 0.783239 0.876055
vt 0.769117 0.876055
vt 0.740236 0.438266
vt 0.754358 0.438266
vt 0.754358 0.876055
vt 0.740236 0.876055
vt 0.668036 0.438266
vt 0.682158 0.438266
vt 0.682158 0.876055
vt 0.668036 0.876055
vt 0.438902 0.438266
vt 0.438902 0.876055
vt 0.410657 0.876055
vt 0.410657 0.438266
vt 0.639156 0.438266
vt 0.653278 0.438266
vt 0.653278 0.876055
vt 0.639156 0.876055
vt 0.725796 0.438266
vt 0.739918 0.438266
vt 0.739918 0.876055
vt 0.725796 0.876055
vt 0.653595 0.438266
vt 0.667717 0.438266
vt 0.667717 0.876055
vt 0.653595 0.876055
vt 0.711355 0.438266
vt 0.725477 0.438266
vt 0.725477 0.876055
vt 0.711355 0.876055
vt 0.696917 0.438266
vt 0.711039 0.438266
vt 0.711039 0.876055
vt 0.696917 0.876055
vt 0.891130 0.437948
vt 0.877008 0.437948
vt 0.877008 0.000159
vt 0.891130 0.000159
vt 0.582031 0.438266
vt 0.610276 0.438266
vt 0.610276 0.876055
vt 0.582031 0.876055
vt 0.905571 0.437948
vt 0.891449 0.437948
vt 0.891449 0.000159
vt 0.905571 0.000159
vt 0.862568 0.437948
vt 0.862568 0.000159
vt 0.876690 0.000159
vt 0.876690 0.437948
vt 0.948892 0.437948
vt 0.934770 0.437948
vt 0.934770 0.000159
vt 0.948892 0.000159
vt 0.869879 0.876055
vt 0.855757 0.876055
vt 0.855757 0.438266
vt 0.869879 0.438266
vt 0.841000 0.876055
vt 0.826878 0.876055
vt 0.826878 0.438266
vt 0.841000 0.438266
vt 0.992212 0.000159
vt 0.992212 0.437948
vt 0.978090 0.437948
vt 0.978090 0.000159
vt 0.913200 0.876055
vt 0.899078 0.876055
vt 0.899078 0.438266
vt 0.913200 0.438266
vt 0.855440 0.876055
vt 0.841318 0.876055
vt 0.841318 0.438266
vt 0.855440 0.438266
vt 0.884638 0.438266
vt 0.898760 0.438266
vt 0.898760 0.876055
vt 0.884638 0.876055
vt 0.884319 0.876055
vt 0.870197 0.876055
vt 0.870197 0.438266
vt 0.884319 0.438266
vt 0.927641 0.438266
vt 0.927641 0.876055
vt 0.913519 0.876055
vt 0.913519 0.438266
vt 0.650417 0.437948
vt 0.650417 0.000159
vt 0.862251 0.000159
vt 0.862251 0.437948
vt 0.496344 0.876055
vt 0.496344 0.438266
vt 0.524589 0.438266
vt 0.524589 0.876055
vt 0.797678 0.438266
vt 0.797678 0.876055
vt 0.783556 0.876055
vt 0.783556 0.438266
vn -1.0000 -0.0000 0.0000
vn 0.0000 -0.0000 1.0000
vn 1.0000 -0.0000 0.0000
vn 0.0000 -1.0000 0.0000
vn 0.0000 0.0000 -1.0000
vn 0.0000 1.0000 0.0000
usemtl Wall_Ext_SemiBrick
s off
f 92/1/1 13/2/1 64/3/1 37/4/1 1/5/1 79/6/1 80/7/1 81/8/1 51/9/1 2/10/1 40/11/1 82/12/1 3/13/1 4/14/1 41/15/1 53/16/1 52/17/1 67/18/1 5/19/1 54/20/1 69/21/1 6/22/1 42/23/1 86/24/1 55/25/1 71/26/1 43/27/1 57/28/1 56/29/1 7/30/1 8/31/1 59/32/1 58/33/1 9/34/1 44/35/1 89/36/1 60/37/1 73/38/1 74/39/1 75/40/1 38/41/1 11/42/1 10/43/1 34/44/1 77/45/1 12/46/1
f 21/47/2 5/48/2 67/49/2 47/50/2
f 46/51/2 80/52/2 79/53/2 45/54/2
f 24/55/2 55/56/2 86/57/2 87/58/2
f 32/59/3 31/60/3 78/61/3 35/62/3 76/63/3 36/64/3 30/65/3 39/66/3 50/67/3 29/68/3 63/69/3 91/70/3 90/71/3 72/72/3 62/73/3 61/74/3 88/75/3 28/76/3 27/77/3 26/78/3 49/79/3 25/80/3 24/81/3 87/82/3 23/83/3 48/84/3 70/85/3 22/86/3 21/87/3 47/88/3 68/89/3 20/90/3 85/91/3 66/92/3 19/93/3 84/94/3 83/95/3 18/96/3 65/97/3 17/98/3 46/99/3 45/100/3 15/101/3 14/102/3 16/103/3 33/104/3
f 92/105/2 12/106/2 31/107/2 32/108/2
f 35/109/4 34/110/4 10/111/4 76/112/4
f 78/113/2 77/114/2 34/115/2 35/116/2
f 68/117/2 52/118/2 53/119/2 20/120/2
f 38/121/2 75/122/2 39/123/2 30/124/2
f 58/125/2 59/126/2 61/127/2 62/128/2
f 43/129/2 71/130/2 25/131/2 49/132/2
f 27/133/2 56/134/2 57/135/2 26/136/2
f 50/137/2 74/138/2 73/139/2 29/140/2
f 69/141/2 54/142/2 22/143/2 70/144/2
f 64/145/5 13/146/5 33/147/5 16/148/5
f 8/149/2 7/150/2 28/151/2 88/152/2
f 1/153/2 37/154/2 14/155/2 15/156/2
f 73/157/4 60/158/4 63/159/4 29/160/4
f 14/161/4 37/162/4 64/163/4 16/164/4
f 41/165/2 4/166/2 66/167/2 85/168/2
f 10/169/2 11/170/2 36/171/2 76/172/2
f 65/173/4 18/174/4 2/175/4 51/176/4
f 4/177/4 3/178/4 19/179/4 66/180/4
f 67/181/4 52/182/4 68/183/4 47/184/4
f 71/185/4 55/186/4 24/187/4 25/188/4
f 23/189/2 42/190/2 6/191/2 48/192/2
f 7/193/4 56/194/4 27/195/4 28/196/4
f 9/197/4 58/198/4 62/199/4 72/200/4
f 75/201/4 74/202/4 50/203/4 39/204/4
f 11/205/4 38/206/4 30/207/4 36/208/4
f 12/209/4 77/210/4 78/211/4 31/212/4
f 79/213/6 1/214/6 15/215/6 45/216/6
f 72/217/2 90/218/2 44/219/2 9/220/2
f 81/221/6 80/222/6 46/223/6 17/224/6
f 40/225/6 83/226/6 84/227/6 82/228/6
f 3/229/2 82/230/2 84/231/2 19/232/2
f 53/233/6 41/234/6 85/235/6 20/236/6
f 54/237/6 5/238/6 21/239/6 22/240/6
f 63/241/2 60/242/2 89/243/2 91/244/2
f 86/245/6 42/246/6 23/247/6 87/248/6
f 57/249/6 43/250/6 49/251/6 26/252/6
f 88/253/6 61/254/6 59/255/6 8/256/6
f 89/257/6 44/258/6 90/259/6 91/260/6
f 65/261/2 51/262/2 81/263/2 17/264/2
f 92/265/6 32/266/6 33/267/6 13/268/6
f 2/269/2 18/270/2 83/271/2 40/272/2
f 69/273/4 70/274/4 48/275/4 6/276/4
