# Blender v3.2.2 OBJ File: 'Dungeon Voxel Assets.blend'
# www.blender.org
mtllib Door_Wall_Bars_Closed.mtl
o Door_Wall_Bars_Closed_Door_Wall_Bars_Closed.001
v -0.751408 -0.531690 -0.145775
v -0.751408 0.368310 0.154225
v -0.751408 0.268310 -0.145775
v -0.751408 0.268310 0.154225
v -0.651408 0.268310 -0.045775
v -0.651408 0.368310 -0.045775
v -0.651408 0.368310 0.054225
v -0.351408 -0.731690 0.054225
v -0.351408 1.268310 0.054226
v -0.351408 1.268310 -0.045774
v -0.051409 0.268310 -0.045775
v 0.248592 -0.731690 0.054225
v 0.248592 -0.431690 -0.045775
v 0.248592 0.268310 0.054225
v 0.248592 0.368310 0.054225
v 0.248592 1.268310 0.054226
v 0.548591 -0.731690 0.054225
v 0.548591 -0.431690 0.054225
v 0.548591 0.268310 0.054225
v 0.548591 0.268310 -0.045775
v -0.551409 -0.531690 -0.045775
v -0.551409 0.368310 0.054225
v -0.251408 -0.531690 -0.045775
v -0.251408 -0.431690 0.054225
v -0.251408 1.268310 0.054226
v 0.048591 -0.431690 0.054225
v 0.048591 1.268310 -0.045774
v 0.348592 -0.731690 0.054225
v 0.348592 -0.731690 -0.045775
v 0.348592 -0.531690 0.054225
v 0.348592 -0.531690 -0.045775
v 0.648592 -0.731690 0.054225
v 0.648592 0.368310 -0.045775
v 0.748592 -0.531690 -0.145775
v 0.748592 0.268310 0.154225
v 0.748592 0.268310 -0.145775
v 0.748592 0.368310 0.154225
v -0.751408 -0.431690 0.154225
v -0.751408 -0.531690 0.154225
v -0.451409 0.368310 0.154225
v -0.551409 -0.731690 0.054225
v -0.551409 -0.531690 0.054225
v -0.651408 1.068310 0.054226
v -0.351408 -0.531690 0.054225
v -0.251408 -0.531690 0.054225
v -0.251408 0.268310 0.054225
v 0.048591 -0.731690 0.054225
v 0.048591 -0.531690 0.054225
v -0.051409 0.268310 0.054225
v -0.051409 0.368310 0.054225
v -0.051409 1.268310 0.054226
v 0.248592 -0.531690 0.054225
v 0.348592 -0.431690 0.054225
v 0.248592 -0.431690 0.054225
v 0.348592 0.368310 0.054225
v 0.348592 1.268310 0.054226
v 0.648592 -0.531690 0.054225
v 0.648592 -0.431690 0.054225
v 0.648592 0.268310 0.054225
v 0.548591 1.068310 0.054226
v -0.551409 -0.431690 -0.045775
v -0.351408 0.368310 -0.045775
v -0.051409 0.368310 -0.045775
v 0.048591 0.368310 -0.045775
v 0.348592 -0.431690 -0.045775
v 0.348592 0.368310 -0.045775
v 0.548591 0.368310 -0.045775
v -0.351408 -0.431690 0.054225
v -0.351408 0.368310 0.054225
v -0.051409 -0.531690 0.054225
v -0.051409 -0.431690 0.054225
v 0.048591 0.268310 0.054225
v 0.048591 0.368310 0.054225
v 0.548591 -0.531690 0.054225
v 0.348592 0.268310 0.054225
v -0.651408 -0.731690 -0.045775
v -0.551409 -0.731690 -0.045775
v -0.651408 -0.431690 -0.045775
v -0.551409 0.368310 -0.045775
v -0.251408 0.268310 -0.045775
v -0.251408 0.368310 -0.045775
v -0.251408 1.268310 -0.045774
v -0.051409 -0.531690 -0.045775
v 0.048591 -0.731690 -0.045775
v -0.051409 -0.431690 -0.045775
v 0.048591 -0.431690 -0.045775
v -0.051409 1.268310 -0.045774
v 0.248592 0.268310 -0.045775
v 0.548591 -0.531690 -0.045775
v 0.648592 -0.431690 -0.045775
v 0.648592 0.268310 -0.045775
v 0.548591 1.068310 -0.045774
v -0.751408 -0.431690 -0.145775
v 0.048591 -0.531690 -0.145775
v 0.648592 0.268310 -0.145775
v 0.748592 -0.431690 -0.145775
v -0.651408 -0.731690 0.054225
v -0.351408 -0.731690 -0.045775
v -0.251408 -0.731690 0.054225
v -0.251408 -0.731690 -0.045775
v -0.051409 -0.731690 -0.045775
v -0.051409 -0.731690 0.054225
v 0.248592 -0.731690 -0.045775
v 0.548591 -0.731690 -0.045775
v 0.648592 -0.731690 -0.045775
v -0.651408 -0.531690 0.054225
v 0.748592 -0.531690 0.154225
v -0.651408 -0.531690 -0.045775
v 0.648592 -0.531690 -0.045775
v -0.351408 -0.531690 -0.045775
v -0.051409 -0.531690 -0.145775
v 0.048591 -0.531690 -0.045775
v 0.248592 -0.531690 -0.045775
v -0.651408 0.268310 0.054225
v -0.551409 0.268310 0.054225
v -0.351408 0.268310 0.054225
v -0.551409 0.268310 -0.045775
v -0.351408 0.268310 -0.045775
v 0.048591 0.268310 -0.045775
v 0.348592 0.268310 -0.045775
v -0.651408 -0.431690 0.054225
v -0.551409 -0.431690 0.054225
v 0.748592 -0.431690 0.154225
v -0.351408 -0.431690 -0.045775
v -0.251408 -0.431690 -0.045775
v -0.051409 -0.431690 -0.145775
v 0.048591 -0.431690 -0.145775
v 0.548591 -0.431690 -0.045775
v -0.251408 0.368310 0.054225
v 0.548591 0.368310 0.054225
v 0.648592 0.368310 0.054225
v -0.751408 0.368310 -0.145774
v 0.248592 0.368310 -0.045775
v 0.748592 0.368310 -0.145774
v -0.551409 1.068310 0.054226
v -0.651408 1.068310 -0.045774
v -0.551409 1.068310 -0.045774
v 0.648592 1.068310 0.054226
v 0.648592 1.068310 -0.045774
v 0.048591 1.268310 0.054226
v 0.248592 1.268310 -0.045774
v 0.348592 1.268310 -0.045774
vt 0.894976 0.444273
vt 0.894976 0.555285
vt 0.857972 0.555285
vt 0.857972 0.000221
vt 0.894976 0.000221
vt 0.148682 0.407269
vt 0.148682 0.481276
vt 0.111678 0.444273
vt 0.111678 0.000221
vt 0.148682 0.037226
vt 0.148682 0.074230
vt 0.148682 0.148239
vt 0.148682 0.185242
vt 0.148682 0.259251
vt 0.148682 0.296255
vt 0.148682 0.370264
vt 0.483050 0.000222
vt 0.483050 0.333259
vt 0.483050 0.370264
vt 0.483050 0.629293
vt 0.483050 0.666297
vt 0.483050 0.740305
vt 0.446046 0.740305
vt 0.446046 0.666297
vt 0.446046 0.629293
vt 0.446046 0.370264
vt 0.446046 0.333259
vt 0.446046 0.000222
vt 0.632842 0.815201
vt 0.632842 0.889210
vt 0.595837 0.889210
vt 0.595837 0.815201
vt 0.037668 0.555728
vt 0.074673 0.555728
vt 0.074673 0.888765
vt 0.037668 0.888765
vt 0.782633 0.814757
vt 0.745628 0.814757
vt 0.745628 0.555728
vt 0.782633 0.555728
vt 0.261911 0.889652
vt 0.261911 0.963661
vt 0.224907 0.963661
vt 0.224907 0.889652
vt 0.557946 0.666297
vt 0.557946 0.740305
vt 0.520942 0.740305
vt 0.520942 0.666297
vt 0.520942 0.629293
vt 0.520942 0.370264
vt 0.520942 0.333259
vt 0.520942 0.000222
vt 0.557946 0.000222
vt 0.557946 0.333259
vt 0.557946 0.370264
vt 0.557946 0.629293
vt 0.857528 0.555285
vt 0.820524 0.555285
vt 0.820524 0.518280
vt 0.820524 0.000221
vt 0.857528 0.000221
vt 0.670289 0.000222
vt 0.670289 0.333259
vt 0.670289 0.370264
vt 0.670289 0.629293
vt 0.670289 0.666297
vt 0.670289 0.740305
vt 0.633285 0.740305
vt 0.633285 0.666297
vt 0.633285 0.629293
vt 0.633285 0.370264
vt 0.633285 0.333259
vt 0.633285 0.000222
vt 0.483494 0.926657
vt 0.520498 0.926657
vt 0.520498 0.963661
vt 0.483494 0.963661
vt 0.149569 0.555728
vt 0.149569 0.888765
vt 0.112564 0.888765
vt 0.112564 0.555728
vt 0.745185 0.000222
vt 0.745185 0.259251
vt 0.745185 0.296255
vt 0.745185 0.555285
vt 0.745185 0.592289
vt 0.745185 0.666297
vt 0.708181 0.666297
vt 0.708181 0.592289
vt 0.708181 0.555285
vt 0.708181 0.296255
vt 0.708181 0.259251
vt 0.708181 0.000222
vt 0.782633 0.815201
vt 0.782633 0.889210
vt 0.745629 0.889210
vt 0.745629 0.815201
vt 0.483494 0.740749
vt 0.520498 0.740749
vt 0.520498 0.851762
vt 0.483494 0.851762
vt 0.000221 0.889209
vt 0.037226 0.889209
vt 0.037226 0.963217
vt 0.000221 0.963217
vt 0.374255 0.815201
vt 0.374255 0.889210
vt 0.337251 0.889210
vt 0.337251 0.815201
vt 0.187016 0.888765
vt 0.150011 0.888765
vt 0.150011 0.555728
vt 0.187016 0.555728
vt 0.558390 0.740749
vt 0.595394 0.740749
vt 0.595394 0.851761
vt 0.558390 0.851761
vt 0.632842 0.740749
vt 0.632842 0.814757
vt 0.595837 0.814757
vt 0.595837 0.740749
vt 0.262355 0.814757
vt 0.262355 0.555728
vt 0.299359 0.555728
vt 0.299359 0.814757
vt 0.520498 0.000222
vt 0.520498 0.074230
vt 0.520498 0.111234
vt 0.520498 0.370264
vt 0.520498 0.407268
vt 0.520498 0.740305
vt 0.483494 0.740305
vt 0.483494 0.407268
vt 0.483494 0.370264
vt 0.483494 0.111234
vt 0.483494 0.074230
vt 0.483494 0.000222
vt 0.633285 0.740749
vt 0.670289 0.740749
vt 0.670289 0.851762
vt 0.633285 0.851762
vt 0.187017 0.889208
vt 0.187017 0.963217
vt 0.150012 0.963217
vt 0.150012 0.889208
vt 0.112122 0.555728
vt 0.112122 0.888765
vt 0.075117 0.888765
vt 0.075117 0.555728
vt 0.411703 0.814757
vt 0.374699 0.814757
vt 0.374699 0.555728
vt 0.411703 0.555728
vt 0.299359 0.815201
vt 0.299359 0.889210
vt 0.262355 0.889210
vt 0.262355 0.815201
vt 0.261911 0.815201
vt 0.261911 0.889210
vt 0.224907 0.889210
vt 0.224907 0.815201
vt 0.299803 0.963661
vt 0.299803 0.889652
vt 0.336807 0.889652
vt 0.336807 0.963661
vt 0.558390 0.963661
vt 0.558390 0.926657
vt 0.595394 0.926657
vt 0.595394 0.963661
vt 0.894976 0.815201
vt 0.894976 0.889210
vt 0.857972 0.889210
vt 0.857972 0.815201
vt 0.894976 0.889653
vt 0.894976 0.926657
vt 0.857971 0.926657
vt 0.857971 0.889653
vt 0.336807 0.814757
vt 0.299803 0.814757
vt 0.299803 0.555728
vt 0.336807 0.555728
vt 0.932867 0.000222
vt 0.969872 0.000222
vt 0.969872 0.259251
vt 0.932867 0.259251
vt 0.969870 0.555728
vt 0.969870 0.814757
vt 0.932865 0.814757
vt 0.932865 0.555728
vt 0.895419 0.815201
vt 0.932424 0.815201
vt 0.932424 0.889209
vt 0.895419 0.889209
vt 0.857528 0.815200
vt 0.857528 0.889209
vt 0.820524 0.889209
vt 0.820524 0.815200
vt 0.149569 0.963217
vt 0.112565 0.963217
vt 0.112565 0.889208
vt 0.149569 0.889208
vt 0.857529 0.555728
vt 0.857529 0.814757
vt 0.820524 0.814757
vt 0.820524 0.555728
vt 0.707737 0.666741
vt 0.707737 0.925770
vt 0.670732 0.925770
vt 0.670732 0.666741
vt 0.336807 0.815201
vt 0.336807 0.889209
vt 0.299803 0.889209
vt 0.299803 0.815201
vt 0.374255 0.889652
vt 0.374255 0.963661
vt 0.337251 0.963661
vt 0.337251 0.889652
vt 0.708179 0.666741
vt 0.745184 0.666741
vt 0.745184 0.925770
vt 0.708179 0.925770
vt 0.558390 0.111234
vt 0.558390 0.074230
vt 0.558390 0.000222
vt 0.595394 0.000222
vt 0.595394 0.074230
vt 0.595394 0.111234
vt 0.595394 0.370264
vt 0.595394 0.407268
vt 0.595394 0.740305
vt 0.558390 0.740305
vt 0.558390 0.407268
vt 0.558390 0.370264
vt 0.670290 0.963661
vt 0.633285 0.963661
vt 0.633285 0.926657
vt 0.670290 0.926657
vt 0.932423 0.555728
vt 0.932423 0.814757
vt 0.895418 0.814757
vt 0.895418 0.555728
vt 0.408599 0.259251
vt 0.445603 0.259251
vt 0.445603 0.296255
vt 0.408599 0.296255
vt 0.187460 0.889209
vt 0.224464 0.889209
vt 0.224464 0.963217
vt 0.187460 0.963217
vt 0.595837 0.889652
vt 0.632842 0.889652
vt 0.632842 0.926657
vt 0.595837 0.926657
vt 0.820524 0.889652
vt 0.857528 0.889652
vt 0.857528 0.926657
vt 0.820524 0.926657
vt 0.558390 0.926214
vt 0.558390 0.852205
vt 0.595394 0.852205
vt 0.595394 0.926214
vt 0.895420 0.259695
vt 0.932425 0.259695
vt 0.932425 0.518724
vt 0.895420 0.518724
vt 0.969872 0.518724
vt 0.932867 0.518724
vt 0.932867 0.259695
vt 0.969872 0.259695
vt 0.483050 0.999778
vt 0.446046 0.999778
vt 0.446046 0.740749
vt 0.483050 0.740749
vt 0.520942 0.740749
vt 0.557946 0.740749
vt 0.557946 0.851761
vt 0.520942 0.851761
vt 0.520942 0.926657
vt 0.557946 0.926657
vt 0.557946 0.963661
vt 0.520942 0.963661
vt 0.894976 0.555728
vt 0.894976 0.814757
vt 0.857971 0.814757
vt 0.857971 0.555728
vt 0.000222 0.000221
vt 0.111234 0.000221
vt 0.074230 0.148239
vt 0.074230 0.074230
vt 0.074230 0.037226
vt 0.037226 0.037226
vt 0.037226 0.074230
vt 0.037226 0.148239
vt 0.037226 0.185242
vt 0.037226 0.259251
vt 0.037226 0.296255
vt 0.037226 0.370264
vt 0.037226 0.407269
vt 0.037226 0.481276
vt 0.037226 0.518280
vt 0.074230 0.518280
vt 0.111234 0.518280
vt 0.111234 0.555285
vt 0.000222 0.555285
vt 0.895420 0.259251
vt 0.895420 0.000222
vt 0.932425 0.000222
vt 0.932425 0.259251
vt 0.297142 0.407269
vt 0.334146 0.296255
vt 0.334146 0.555285
vt 0.223134 0.555285
vt 0.223134 0.000221
vt 0.334146 0.000221
vt 0.334146 0.259251
vt 0.297142 0.259251
vt 0.297142 0.185242
vt 0.297142 0.148239
vt 0.297142 0.074230
vt 0.297142 0.037226
vt 0.260138 0.037226
vt 0.260138 0.074230
vt 0.260138 0.148239
vt 0.260138 0.185242
vt 0.260138 0.259251
vt 0.260138 0.296255
vt 0.260138 0.370264
vt 0.260138 0.407269
vt 0.260138 0.481276
vt 0.260138 0.518280
vt 0.297142 0.518280
vt 0.297142 0.481276
vt 0.707737 0.370264
vt 0.707737 0.407268
vt 0.707737 0.666297
vt 0.670733 0.666297
vt 0.670733 0.407268
vt 0.670733 0.370264
vt 0.670733 0.111234
vt 0.670733 0.074230
vt 0.670733 0.000222
vt 0.707737 0.000222
vt 0.707737 0.074230
vt 0.707737 0.111234
vt 0.632842 0.000222
vt 0.632842 0.074230
vt 0.632842 0.111234
vt 0.632842 0.370264
vt 0.632842 0.407268
vt 0.632842 0.740305
vt 0.595837 0.740305
vt 0.595837 0.407268
vt 0.595837 0.370264
vt 0.595837 0.111234
vt 0.595837 0.074230
vt 0.595837 0.000222
vt 0.670290 0.852205
vt 0.670290 0.926214
vt 0.633286 0.926214
vt 0.633286 0.852205
vt 0.783075 0.815201
vt 0.820080 0.815201
vt 0.820080 0.889209
vt 0.783075 0.889209
vt 0.262355 0.963661
vt 0.262355 0.889652
vt 0.299359 0.889652
vt 0.299359 0.963661
vt 0.782633 0.000221
vt 0.782633 0.259251
vt 0.782633 0.296255
vt 0.782633 0.555285
vt 0.745629 0.555285
vt 0.745629 0.296255
vt 0.745629 0.259251
vt 0.745629 0.000221
vt 0.374699 0.815201
vt 0.411703 0.815201
vt 0.411703 0.889209
vt 0.374699 0.889209
vt 0.745185 0.963218
vt 0.708181 0.963218
vt 0.708181 0.926213
vt 0.745185 0.926213
vt 0.261911 0.555728
vt 0.261911 0.814757
vt 0.224907 0.814757
vt 0.224907 0.555728
vt 0.297142 0.296255
vt 0.297142 0.370264
vt 0.187460 0.555728
vt 0.224464 0.555728
vt 0.224464 0.888765
vt 0.187460 0.888765
vt 0.520498 0.926213
vt 0.483494 0.926213
vt 0.483494 0.852204
vt 0.520498 0.852204
vt 0.745628 0.889653
vt 0.782633 0.889653
vt 0.782633 0.963661
vt 0.745628 0.963661
vt 0.411703 0.889652
vt 0.411703 0.963661
vt 0.374698 0.963661
vt 0.374698 0.889652
vt 0.074230 0.481276
vt 0.074230 0.407269
vt 0.074230 0.370264
vt 0.074230 0.296255
vt 0.074230 0.259251
vt 0.074230 0.185242
vt 0.520941 0.852205
vt 0.557945 0.852205
vt 0.557945 0.926214
vt 0.520941 0.926214
vt 0.037226 0.888765
vt 0.000221 0.888765
vt 0.000221 0.555728
vt 0.037226 0.555728
vt 0.783075 0.814757
vt 0.783075 0.555728
vt 0.820080 0.555728
vt 0.820080 0.814757
vt 0.820081 0.555285
vt 0.783076 0.555285
vt 0.783076 0.000221
vt 0.820081 0.000221
vt 0.074673 0.889209
vt 0.074673 0.963217
vt 0.037668 0.963217
vt 0.037668 0.889209
vt 0.408599 0.185242
vt 0.408599 0.148239
vt 0.408599 0.074230
vt 0.408599 0.037226
vt 0.371594 0.037226
vt 0.371594 0.074230
vt 0.371594 0.148239
vt 0.371594 0.185242
vt 0.371594 0.259251
vt 0.371594 0.296255
vt 0.371594 0.370264
vt 0.371594 0.407269
vt 0.371594 0.481276
vt 0.371594 0.518280
vt 0.408599 0.518280
vt 0.408599 0.481276
vt 0.408599 0.407269
vt 0.408599 0.370264
vt 0.445603 0.555285
vt 0.334590 0.555285
vt 0.334590 0.000221
vt 0.445603 0.000221
vt 0.374255 0.814757
vt 0.337251 0.814757
vt 0.337251 0.555728
vt 0.374255 0.555728
vt 0.707737 0.963218
vt 0.670733 0.963218
vt 0.670733 0.926213
vt 0.707737 0.926213
vt 0.820081 0.926657
vt 0.783076 0.926657
vt 0.783076 0.889652
vt 0.820081 0.889652
vt 0.112121 0.889208
vt 0.112121 0.963217
vt 0.075117 0.963217
vt 0.075117 0.889208
vt 0.148682 0.518280
vt 0.185686 0.518280
vt 0.185686 0.481276
vt 0.185686 0.407269
vt 0.185686 0.370264
vt 0.185686 0.296255
vt 0.185686 0.259251
vt 0.185686 0.185242
vt 0.185686 0.148239
vt 0.185686 0.074230
vt 0.185686 0.037226
vt 0.222690 0.000221
vt 0.222690 0.555285
vt 0.111678 0.555285
vn 0.0000 -0.0000 1.0000
vn 0.0000 1.0000 0.0000
vn -1.0000 0.0000 0.0000
vn 0.0000 0.0000 -1.0000
vn 1.0000 -0.0000 0.0000
vn 0.0000 -1.0000 0.0000
usemtl Door_Wall_Bars_Closed
s off
f 40/1/1 2/2/1 4/3/1 35/4/1 37/5/1
f 69/6/2 22/7/2 40/8/2 37/9/2 131/10/2 130/11/2 55/12/2 15/13/2 73/14/2 50/15/2 129/16/2
f 10/17/3 62/18/3 118/19/3 124/20/3 110/21/3 98/22/3 8/23/3 44/24/3 68/25/3 116/26/3 69/27/3 9/28/3
f 26/29/4 54/30/4 52/31/4 48/32/4
f 10/33/4 82/34/4 81/35/4 62/36/4
f 18/37/1 58/38/1 59/39/1 19/40/1
f 128/41/1 65/42/1 31/43/1 89/44/1
f 83/45/3 101/46/3 102/47/3 70/48/3 71/49/3 49/50/3 50/51/3 51/52/3 87/53/3 63/54/3 11/55/3 85/56/3
f 134/57/4 36/58/4 95/59/4 3/60/4 132/61/4
f 141/62/3 133/63/3 88/64/3 13/65/3 113/66/3 103/67/3 12/68/3 52/69/3 54/70/3 14/71/3 15/72/3 16/73/3
f 25/74/2 82/75/2 10/76/2 9/77/2
f 27/78/4 64/79/4 63/80/4 87/81/4
f 92/82/3 67/83/3 20/84/3 128/85/3 89/86/3 104/87/3 17/88/3 74/89/3 18/90/3 19/91/3 130/92/3 60/93/3
f 13/94/1 86/95/1 112/96/1 113/97/1
f 132/98/3 3/99/3 4/100/3 2/101/3
f 48/102/1 70/103/1 102/104/1 47/105/1
f 133/106/1 64/107/1 119/108/1 88/109/1
f 15/110/1 55/111/1 56/112/1 16/113/1
f 34/114/5 96/115/5 123/116/5 107/117/5
f 108/118/3 76/119/3 97/120/3 106/121/3
f 59/122/5 58/123/5 90/124/5 91/125/5
f 84/126/5 112/127/5 86/128/5 119/129/5 64/130/5 27/131/5 140/132/5 73/133/5 72/134/5 26/135/5 48/136/5 47/137/5
f 36/138/5 134/139/5 37/140/5 35/141/5
f 63/142/1 81/143/1 80/144/1 11/145/1
f 51/146/1 50/147/1 73/148/1 140/149/1
f 125/150/4 124/151/4 118/152/4 80/153/4
f 62/154/1 79/155/1 117/156/1 118/157/1
f 124/158/1 61/159/1 21/160/1 110/161/1
f 70/162/4 45/163/4 24/164/4 71/165/4
f 135/166/2 137/167/2 136/168/2 43/169/2
f 73/170/4 15/171/4 14/172/4 72/173/4
f 77/174/6 41/175/6 97/176/6 76/177/6
f 139/178/5 138/179/5 131/180/5 33/181/5
f 115/182/1 114/183/1 121/184/1 122/185/1
f 43/186/1 7/187/1 22/188/1 135/189/1
f 110/190/4 23/191/4 100/192/4 98/193/4
f 122/194/4 68/195/4 44/196/4 42/197/4
f 125/198/1 23/199/1 83/200/1 85/201/1
f 116/202/1 68/203/1 24/204/1 46/205/1
f 49/206/1 71/207/1 26/208/1 72/209/1
f 105/210/5 109/211/5 57/212/5 32/213/5
f 55/214/4 130/215/4 19/216/4 75/217/4
f 88/218/4 120/219/4 65/220/4 13/221/4
f 24/222/5 45/223/5 99/224/5 100/225/5 23/226/5 125/227/5 80/228/5 81/229/5 82/230/5 25/231/5 129/232/5 46/233/5
f 29/234/6 28/235/6 12/236/6 103/237/6
f 60/238/1 130/239/1 131/240/1 138/241/1
f 86/242/2 127/243/2 126/244/2 85/245/2
f 42/246/1 106/247/1 97/248/1 41/249/1
f 140/250/2 27/251/2 87/252/2 51/253/2
f 56/254/2 142/255/2 141/256/2 16/257/2
f 32/258/1 57/259/1 74/260/1 17/261/1
f 92/262/4 139/263/4 33/264/4 67/265/4
f 61/266/4 78/267/4 5/268/4 117/269/4
f 79/270/4 6/271/4 136/272/4 137/273/4
f 93/274/3 1/275/3 39/276/3 38/277/3
f 138/278/2 139/279/2 92/280/2 60/281/2
f 119/282/4 86/283/4 85/284/4 11/285/4
f 4/286/6 3/287/6 118/288/6 117/289/6 5/290/6 114/291/6 115/292/6 116/293/6 46/294/6 49/295/6 72/296/6 14/297/6 75/298/6 19/299/6 59/300/6 91/301/6 95/302/6 36/303/6 35/304/6
f 128/305/4 20/306/4 91/307/4 90/308/4
f 31/309/6 94/310/6 34/311/6 107/312/6 39/313/6 1/314/6 111/315/6 83/316/6 23/317/6 110/318/6 21/319/6 108/320/6 106/321/6 42/322/6 44/323/6 45/324/6 70/325/6 48/326/6 52/327/6 30/328/6 74/329/6 57/330/6 109/331/6 89/332/6
f 117/333/5 79/334/5 137/335/5 135/336/5 22/337/5 115/338/5 122/339/5 42/340/5 41/341/5 77/342/5 21/343/5 61/344/5
f 29/345/5 31/346/5 65/347/5 120/348/5 66/349/5 142/350/5 56/351/5 55/352/5 75/353/5 53/354/5 30/355/5 28/356/5
f 109/357/4 105/358/4 104/359/4 89/360/4
f 30/361/1 52/362/1 12/363/1 28/364/1
f 74/365/4 30/366/4 53/367/4 18/368/4
f 93/369/4 126/370/4 127/371/4 96/372/4 34/373/4 94/374/4 111/375/4 1/376/4
f 45/377/1 44/378/1 8/379/1 99/380/1
f 100/381/6 99/382/6 8/383/6 98/384/6
f 5/385/3 78/386/3 121/387/3 114/388/3
f 112/389/6 83/316/6 111/315/6 94/310/6 31/309/6 113/390/6
f 141/391/4 142/392/4 66/393/4 133/394/4
f 69/395/4 116/396/4 115/397/4 22/398/4
f 108/399/4 21/400/4 77/401/4 76/402/4
f 129/403/4 50/404/4 49/405/4 46/406/4
f 118/288/6 3/287/6 95/302/6 91/301/6 20/407/6 120/408/6 88/409/6 119/410/6 11/411/6 80/412/6
f 83/413/4 112/414/4 84/415/4 101/416/4
f 69/417/1 129/418/1 25/419/1 9/420/1
f 53/421/1 75/422/1 14/423/1 54/424/1
f 38/425/1 39/426/1 107/427/1 123/428/1
f 31/429/4 29/430/4 103/431/4 113/432/4
f 127/243/2 86/242/2 13/433/2 65/434/2 128/435/2 90/436/2 58/437/2 18/438/2 53/439/2 54/440/2 26/441/2 71/442/2 24/443/2 68/444/2 122/445/2 121/446/2 78/447/2 61/448/2 124/449/2 125/450/2 85/245/2 126/244/2 93/451/2 38/452/2 123/453/2 96/454/2
f 6/455/3 7/456/3 43/457/3 136/458/3
f 84/459/6 47/460/6 102/461/6 101/462/6
f 105/463/6 32/464/6 17/465/6 104/466/6
f 67/467/1 66/468/1 120/469/1 20/470/1
f 22/7/2 7/471/2 6/472/2 79/473/2 62/474/2 81/475/2 63/476/2 64/477/2 133/478/2 66/479/2 67/480/2 33/481/2 131/10/2 37/9/2 134/482/2 132/483/2 2/484/2 40/8/2
