# Blender v3.2.2 OBJ File: 'Dungeon Voxel Assets.blend'
# www.blender.org
mtllib Door_Wall_Bars_SemiOpen.mtl
o Door_Wall_Bars_SemiOpen_Door_Wall_Bars_SemiOpen.001
v -0.752113 -0.479577 -0.148592
v -0.752113 0.420423 -0.148591
v -0.652112 -0.679577 0.051408
v -0.652112 -0.479577 0.051408
v -0.652112 0.320423 0.051409
v -0.652112 0.420423 -0.048591
v -0.652112 0.420423 0.051409
v -0.352113 -0.679577 -0.048592
v -0.352113 0.420423 0.051409
v 0.247887 -0.479577 0.051408
v 0.547887 -0.379577 0.051408
v -0.552112 -0.679577 -0.048592
v -0.552112 -0.379577 -0.048592
v -0.252113 -0.679577 0.051408
v -0.252113 -0.679577 -0.048592
v -0.252113 0.920423 0.051409
v 0.047887 -0.679577 0.051408
v 0.047887 -0.479577 0.051408
v 0.047887 -0.479577 -0.048592
v 0.047887 0.320423 0.051409
v 0.047887 0.420423 0.051409
v 0.047887 0.920423 0.051409
v 0.347888 -0.679577 0.051408
v 0.347888 0.320423 -0.048592
v 0.347888 0.420423 -0.048591
v 0.347888 0.920423 0.051409
v 0.647887 -0.679577 -0.048592
v 0.647887 -0.379577 0.051408
v 0.647887 0.720423 -0.048591
v 0.747887 -0.379577 -0.148592
v 0.747887 0.320422 0.151409
v 0.747887 0.420423 -0.148591
v -0.752113 -0.379578 0.151408
v -0.752113 -0.479577 0.151408
v 0.647887 0.420422 0.151409
v 0.747887 0.420422 0.151409
v -0.552112 -0.479577 0.051408
v -0.652112 -0.379577 0.051408
v -0.552112 0.320423 0.051409
v -0.552112 0.720423 0.051409
v -0.352113 -0.679577 0.051408
v -0.252113 -0.379577 0.051408
v -0.052112 -0.679577 0.051408
v 0.047887 -0.379577 0.051408
v -0.052112 -0.379577 0.051408
v -0.052112 0.320423 0.051409
v -0.052112 0.920423 0.051409
v 0.247887 -0.679577 0.051408
v 0.347888 -0.479577 0.051408
v 0.347888 0.320423 0.051409
v 0.247887 0.420423 0.051409
v 0.247887 0.920423 0.051409
v 0.647887 -0.679577 0.051408
v 0.547887 -0.479577 0.051408
v 0.547887 -0.679577 0.051408
v 0.547887 0.320423 0.051409
v 0.547887 0.720423 0.051409
v 0.547887 0.420423 0.051409
v 0.647887 0.720423 0.051409
v -0.552112 0.420423 -0.048591
v -0.152112 -0.479577 -0.048592
v -0.052112 -0.479577 -0.048592
v -0.052112 0.320423 -0.048592
v 0.247887 0.320423 -0.048592
v 0.347888 -0.479577 -0.048592
v 0.547887 0.320423 -0.048592
v 0.547887 0.420423 -0.048591
v -0.352113 -0.479577 0.051408
v -0.252113 -0.479577 0.051408
v -0.252113 0.420423 0.051409
v -0.052112 0.420423 0.051409
v 0.247887 -0.379577 0.051408
v 0.347888 -0.379577 0.051408
v -0.652112 -0.479577 -0.048592
v -0.552112 -0.479577 -0.048592
v -0.252113 -0.479577 -0.048592
v -0.252113 -0.379577 -0.048592
v -0.252113 0.420423 -0.048591
v -0.052112 -0.379577 -0.048592
v -0.052112 0.420423 -0.048591
v -0.052112 0.920423 -0.048591
v 0.047887 0.920423 -0.048591
v 0.247887 0.420423 -0.048591
v 0.347888 0.920423 -0.048591
v 0.547887 -0.479577 -0.048592
v 0.647887 -0.379577 -0.048592
v 0.647887 0.320423 -0.048592
v -0.252113 -0.479577 -0.148592
v 0.747887 0.320423 -0.148591
v -0.652112 -0.679577 -0.048592
v -0.552112 -0.679577 0.051408
v -0.052112 -0.679577 -0.048592
v 0.047887 -0.679577 -0.048592
v 0.247887 -0.679577 -0.048592
v 0.347888 -0.679577 -0.048592
v 0.547887 -0.679577 -0.048592
v -0.052112 -0.479577 0.051408
v 0.647887 -0.479577 0.051408
v 0.747887 -0.479577 0.151408
v 0.647887 -0.479577 -0.048592
v -0.352113 -0.479577 -0.048592
v -0.152112 -0.479577 -0.148592
v 0.247887 -0.479577 -0.048592
v 0.747887 -0.479577 -0.148592
v -0.752113 0.320422 0.151409
v -0.352113 0.320423 0.051409
v -0.252113 0.320423 0.051409
v 0.247887 0.320423 0.051409
v 0.647887 0.320422 0.151409
v 0.647887 0.320423 0.051409
v -0.652112 0.320423 -0.048592
v -0.752113 0.320423 -0.148591
v -0.552112 0.320423 -0.048592
v -0.452113 0.320423 -0.148591
v -0.352113 0.320423 -0.048592
v -0.252113 0.320423 -0.048592
v 0.047887 0.320423 -0.048592
v -0.552112 -0.379577 0.051408
v -0.352113 -0.379577 0.051408
v 0.747887 -0.379578 0.151408
v -0.652112 -0.379577 -0.048592
v -0.752113 -0.379577 -0.148592
v -0.352113 -0.379577 -0.048592
v 0.047887 -0.379577 -0.048592
v 0.247887 -0.379577 -0.048592
v 0.347888 -0.379577 -0.048592
v 0.547887 -0.379577 -0.048592
v -0.752113 0.420422 0.151409
v -0.552112 0.420423 0.051409
v 0.347888 0.420423 0.051409
v 0.647887 0.420423 0.051409
v 0.647887 0.420423 -0.048591
v -0.352113 0.420423 -0.048591
v 0.047887 0.420423 -0.048591
v -0.652112 0.720423 0.051409
v -0.652112 0.720423 -0.048591
v -0.552112 0.720423 -0.048591
v 0.547887 0.720423 -0.048591
v -0.352113 0.920423 0.051409
v -0.352113 0.920423 -0.048591
v -0.252113 0.920423 -0.048591
v 0.247887 0.920423 -0.048591
vt 0.518334 0.954389
vt 0.518334 0.835227
vt 0.558055 0.835227
vt 0.558055 0.954389
vt 0.758839 0.835227
vt 0.758839 0.914669
vt 0.719119 0.914669
vt 0.719119 0.835227
vt 0.598211 0.198822
vt 0.598211 0.238543
vt 0.598211 0.516588
vt 0.598211 0.556309
vt 0.598211 0.635751
vt 0.558490 0.635751
vt 0.558490 0.556309
vt 0.558490 0.516588
vt 0.558490 0.238543
vt 0.558490 0.198822
vt 0.558490 0.000218
vt 0.598211 0.000218
vt 0.039939 0.000217
vt 0.119380 0.039940
vt 0.079660 0.039940
vt 0.079660 0.079660
vt 0.039939 0.039940
vt 0.281319 0.874512
vt 0.281319 0.596466
vt 0.321041 0.596466
vt 0.321041 0.874512
vt 0.919468 0.119380
vt 0.919468 0.159101
vt 0.919468 0.437147
vt 0.919468 0.476867
vt 0.919468 0.556309
vt 0.879747 0.556309
vt 0.879747 0.476867
vt 0.879747 0.437147
vt 0.879747 0.159101
vt 0.879747 0.119380
vt 0.879747 0.000218
vt 0.919468 0.000218
vt 0.758839 0.915105
vt 0.758839 0.994546
vt 0.719119 0.994546
vt 0.719119 0.915105
vt 0.401355 0.874512
vt 0.361634 0.874512
vt 0.361634 0.596466
vt 0.401355 0.596466
vt 0.959625 0.437147
vt 0.959625 0.556309
vt 0.919904 0.556309
vt 0.919904 0.437147
vt 0.919904 0.397426
vt 0.919904 0.119380
vt 0.919904 0.079660
vt 0.919904 0.000218
vt 0.959625 0.000218
vt 0.959625 0.079660
vt 0.959625 0.119380
vt 0.959625 0.397426
vt 0.120689 0.874948
vt 0.160412 0.874948
vt 0.160412 0.954389
vt 0.120689 0.954389
vt 0.079660 0.317984
vt 0.079660 0.397427
vt 0.079660 0.437147
vt 0.079660 0.516588
vt 0.079660 0.556309
vt 0.119380 0.556309
vt 0.119380 0.516588
vt 0.119380 0.437147
vt 0.119380 0.397427
vt 0.119380 0.317984
vt 0.119380 0.278263
vt 0.119380 0.198822
vt 0.119380 0.159101
vt 0.119380 0.079660
vt 0.159101 0.000217
vt 0.159101 0.596029
vt 0.039939 0.596029
vt 0.079660 0.159101
vt 0.079660 0.198822
vt 0.079660 0.278263
vt 0.240726 0.994547
vt 0.201005 0.994547
vt 0.201005 0.954824
vt 0.240726 0.954824
vt 0.039939 0.994547
vt 0.000218 0.994547
vt 0.000218 0.954824
vt 0.039939 0.954824
vt 0.959625 0.795942
vt 0.959625 0.875385
vt 0.919904 0.875385
vt 0.919904 0.795942
vt 0.281319 0.874948
vt 0.321041 0.874948
vt 0.321041 0.954389
vt 0.281319 0.954389
vt 0.758839 0.397426
vt 0.758839 0.437147
vt 0.758839 0.635750
vt 0.719119 0.635750
vt 0.719119 0.437147
vt 0.719119 0.397426
vt 0.719119 0.119380
vt 0.719119 0.079660
vt 0.719119 0.000218
vt 0.758839 0.000218
vt 0.758839 0.079660
vt 0.758839 0.119380
vt 0.280884 0.596466
vt 0.280884 0.874511
vt 0.241161 0.874511
vt 0.241161 0.596466
vt 0.441512 0.874947
vt 0.441512 0.954390
vt 0.401791 0.954390
vt 0.401791 0.874947
vt 0.999782 0.000217
vt 0.999782 0.079659
vt 0.960061 0.079659
vt 0.960061 0.000217
vt 0.718682 0.079660
vt 0.718682 0.119380
vt 0.718682 0.397426
vt 0.718682 0.437147
vt 0.718682 0.635750
vt 0.678962 0.635750
vt 0.678962 0.437147
vt 0.678962 0.397426
vt 0.678962 0.119380
vt 0.678962 0.079660
vt 0.678962 0.000218
vt 0.718682 0.000218
vt 0.959625 0.875820
vt 0.959625 0.955263
vt 0.919904 0.955263
vt 0.919904 0.875820
vt 0.201004 0.874948
vt 0.240726 0.874948
vt 0.240726 0.954389
vt 0.201004 0.954389
vt 0.478176 0.238543
vt 0.517897 0.198822
vt 0.517897 0.238543
vt 0.478176 0.278263
vt 0.959625 0.596466
vt 0.959625 0.675909
vt 0.919904 0.675909
vt 0.919904 0.636189
vt 0.919904 0.596466
vt 0.839590 0.954826
vt 0.839590 0.835663
vt 0.879311 0.835663
vt 0.879311 0.954826
vt 0.638805 0.437147
vt 0.638805 0.397426
vt 0.638805 0.119380
vt 0.638805 0.079660
vt 0.638805 0.000218
vt 0.678525 0.000218
vt 0.678525 0.079660
vt 0.678525 0.119380
vt 0.678525 0.397426
vt 0.678525 0.437147
vt 0.678525 0.635750
vt 0.638805 0.635750
vt 0.040375 0.874948
vt 0.080097 0.874948
vt 0.080097 0.954389
vt 0.040375 0.954389
vt 0.000218 0.596029
vt 0.000218 0.039940
vt 0.000218 0.000217
vt 0.481669 0.874947
vt 0.481669 0.954390
vt 0.441948 0.954390
vt 0.441948 0.874947
vt 0.839588 0.835227
vt 0.839588 0.716065
vt 0.879311 0.716065
vt 0.879311 0.835227
vt 0.719118 0.716065
vt 0.758839 0.716065
vt 0.758839 0.795506
vt 0.719118 0.795506
vt 0.120255 0.874511
vt 0.080532 0.874511
vt 0.080532 0.596466
vt 0.120255 0.596466
vt 0.200569 0.596466
vt 0.200569 0.874511
vt 0.160847 0.874511
vt 0.160847 0.596466
vt 0.080532 0.954389
vt 0.080532 0.874948
vt 0.120255 0.874948
vt 0.120255 0.954389
vt 0.160847 0.874948
vt 0.200569 0.874948
vt 0.200569 0.954389
vt 0.160847 0.954389
vt 0.518333 0.636187
vt 0.558056 0.636187
vt 0.558056 0.834791
vt 0.518333 0.834791
vt 0.441511 0.874511
vt 0.401791 0.874511
vt 0.401791 0.596466
vt 0.441511 0.596466
vt 0.638803 0.636187
vt 0.678524 0.636187
vt 0.678524 0.834791
vt 0.638803 0.834791
vt 0.999782 0.239849
vt 0.999782 0.319290
vt 0.960061 0.319290
vt 0.960061 0.239849
vt 0.999782 0.399605
vt 0.999782 0.479046
vt 0.960061 0.479046
vt 0.960061 0.399605
vt 0.160412 0.874511
vt 0.120689 0.874511
vt 0.120689 0.596466
vt 0.160412 0.596466
vt 0.280883 0.994547
vt 0.241162 0.994547
vt 0.241162 0.954824
vt 0.280883 0.954824
vt 0.558054 0.635751
vt 0.518333 0.635751
vt 0.518333 0.556309
vt 0.518333 0.516588
vt 0.518333 0.238543
vt 0.518333 0.198822
vt 0.518333 0.000218
vt 0.558054 0.000218
vt 0.558054 0.198822
vt 0.558054 0.238543
vt 0.558054 0.516588
vt 0.558054 0.556309
vt 0.401355 0.874947
vt 0.401355 0.954390
vt 0.361634 0.954390
vt 0.361634 0.874947
vt 0.039940 0.874512
vt 0.000217 0.874512
vt 0.000217 0.596466
vt 0.039940 0.596466
vt 0.759275 0.795506
vt 0.798998 0.795506
vt 0.798998 0.914669
vt 0.759275 0.914669
vt 0.879747 0.596466
vt 0.919470 0.596466
vt 0.919470 0.715628
vt 0.879747 0.715628
vt 0.919904 0.795507
vt 0.919904 0.716064
vt 0.959625 0.716064
vt 0.959625 0.795507
vt 0.999782 0.399168
vt 0.960061 0.399168
vt 0.960061 0.319727
vt 0.999782 0.319727
vt 0.280884 0.874948
vt 0.280884 0.954389
vt 0.241161 0.954389
vt 0.241161 0.874948
vt 0.080097 0.596466
vt 0.080097 0.874512
vt 0.040375 0.874512
vt 0.040375 0.596466
vt 0.839153 0.755349
vt 0.839153 0.795070
vt 0.799433 0.795070
vt 0.799433 0.755349
vt 0.798998 0.795070
vt 0.759275 0.795070
vt 0.759275 0.596466
vt 0.798998 0.596466
vt 0.441946 0.596466
vt 0.481667 0.596466
vt 0.481667 0.874511
vt 0.441946 0.874511
vt 0.678526 0.835227
vt 0.678526 0.954389
vt 0.638805 0.954389
vt 0.638805 0.835227
vt 0.558489 0.636187
vt 0.598209 0.636187
vt 0.598209 0.834791
vt 0.558489 0.834791
vt 0.799433 0.835227
vt 0.799433 0.795506
vt 0.839153 0.795506
vt 0.839153 0.835227
vt 0.238979 0.556309
vt 0.278700 0.596029
vt 0.159538 0.596029
vt 0.199258 0.556309
vt 0.201004 0.596466
vt 0.240726 0.596466
vt 0.240726 0.874511
vt 0.201004 0.874511
vt 0.120254 0.994547
vt 0.080533 0.994547
vt 0.080533 0.954824
vt 0.120254 0.954824
vt 0.120690 0.954824
vt 0.160411 0.954824
vt 0.160411 0.994547
vt 0.120690 0.994547
vt 0.999782 0.159973
vt 0.999782 0.239414
vt 0.960061 0.239414
vt 0.960061 0.159973
vt 0.040375 0.954824
vt 0.080096 0.954824
vt 0.080096 0.994547
vt 0.040375 0.994547
vt 0.558491 0.835227
vt 0.598212 0.835227
vt 0.598212 0.954389
vt 0.558491 0.954389
vt 0.919468 0.835663
vt 0.919468 0.954826
vt 0.879747 0.954826
vt 0.879747 0.835663
vt 0.281319 0.954824
vt 0.321040 0.954824
vt 0.321040 0.994547
vt 0.281319 0.994547
vt 0.879311 0.000217
vt 0.879311 0.596029
vt 0.839590 0.596029
vt 0.839590 0.238543
vt 0.839590 0.198822
vt 0.839590 0.000217
vt 0.798997 0.000217
vt 0.798997 0.596029
vt 0.759276 0.596029
vt 0.759276 0.119381
vt 0.759276 0.000217
vt 0.678961 0.834791
vt 0.678961 0.636187
vt 0.718683 0.636187
vt 0.718683 0.834791
vt 0.999782 0.080095
vt 0.999782 0.159536
vt 0.960061 0.159536
vt 0.960061 0.080095
vt 0.160847 0.954824
vt 0.200568 0.954824
vt 0.200568 0.994547
vt 0.160847 0.994547
vt 0.598646 0.636187
vt 0.638369 0.636187
vt 0.638369 0.834791
vt 0.598646 0.834791
vt 0.719118 0.636187
vt 0.758839 0.636187
vt 0.758839 0.715628
vt 0.719118 0.715628
vt 0.879747 0.716065
vt 0.919468 0.716065
vt 0.919468 0.835227
vt 0.879747 0.835227
vt 0.839590 0.596466
vt 0.879313 0.596466
vt 0.879313 0.715629
vt 0.839590 0.715629
vt 0.000217 0.954389
vt 0.000217 0.874948
vt 0.039940 0.874948
vt 0.039940 0.954389
vt 0.361197 0.874947
vt 0.361197 0.954390
vt 0.321477 0.954390
vt 0.321477 0.874947
vt 0.798997 0.915104
vt 0.798997 0.994545
vt 0.759276 0.994545
vt 0.759276 0.915104
vt 0.478176 0.516588
vt 0.478176 0.437147
vt 0.478176 0.397427
vt 0.478176 0.317984
vt 0.517897 0.596029
vt 0.398735 0.596029
vt 0.398735 0.000217
vt 0.517897 0.000217
vt 0.478176 0.198822
vt 0.478176 0.159101
vt 0.478176 0.079660
vt 0.478176 0.039940
vt 0.438455 0.039940
vt 0.438455 0.079660
vt 0.438455 0.159101
vt 0.438455 0.198822
vt 0.438455 0.278263
vt 0.438455 0.317984
vt 0.438455 0.397427
vt 0.438455 0.437147
vt 0.438455 0.516588
vt 0.438455 0.556309
vt 0.478176 0.556309
vt 0.839154 0.596029
vt 0.799433 0.596029
vt 0.799433 0.000217
vt 0.839154 0.000217
vt 0.398299 0.119381
vt 0.358578 0.278263
vt 0.358578 0.198822
vt 0.358578 0.159101
vt 0.358578 0.079660
vt 0.358578 0.039940
vt 0.318857 0.039940
vt 0.318857 0.079660
vt 0.318857 0.159101
vt 0.318857 0.198822
vt 0.318857 0.278263
vt 0.318857 0.317984
vt 0.318857 0.397427
vt 0.318857 0.437147
vt 0.318857 0.516588
vt 0.318857 0.556309
vt 0.279136 0.556309
vt 0.279136 0.000217
vt 0.398299 0.000217
vt 0.361197 0.874511
vt 0.321477 0.874511
vt 0.321477 0.596466
vt 0.361197 0.596466
vt 0.279136 0.596029
vt 0.358578 0.556309
vt 0.358578 0.516588
vt 0.358578 0.437147
vt 0.358578 0.397427
vt 0.358578 0.317984
vt 0.398299 0.596029
vt 0.638368 0.198822
vt 0.638368 0.238543
vt 0.638368 0.516588
vt 0.638368 0.556309
vt 0.638368 0.635751
vt 0.598647 0.635751
vt 0.598647 0.556309
vt 0.598647 0.516588
vt 0.598647 0.238543
vt 0.598647 0.198822
vt 0.598647 0.000218
vt 0.638368 0.000218
vt 0.199258 0.437147
vt 0.199258 0.516588
vt 0.159538 0.000217
vt 0.278700 0.000217
vt 0.238979 0.516588
vt 0.238979 0.437147
vt 0.238979 0.397427
vt 0.238979 0.317984
vt 0.238979 0.278263
vt 0.238979 0.198822
vt 0.238979 0.159101
vt 0.238979 0.079660
vt 0.238979 0.039940
vt 0.199258 0.039940
vt 0.199258 0.079660
vt 0.199258 0.159101
vt 0.199258 0.198822
vt 0.199258 0.278263
vt 0.199258 0.317984
vt 0.199258 0.397427
vt 0.960061 0.558924
vt 0.960061 0.479483
vt 0.999782 0.479483
vt 0.999782 0.558924
vn -1.0000 0.0000 0.0000
vn 0.0000 1.0000 0.0000
vn 0.0000 -0.0000 1.0000
vn 1.0000 -0.0000 0.0000
vn 0.0000 -1.0000 0.0000
vn 0.0000 0.0000 -1.0000
usemtl Door_Wall_Bars_SemiOpen
s off
f 128/1/1 2/2/1 112/3/1 105/4/1
f 74/5/1 90/6/1 3/7/1 4/8/1
f 80/9/1 63/10/1 79/11/1 62/12/1 92/13/1 43/14/1 97/15/1 45/16/1 46/17/1 71/18/1 47/19/1 81/20/1
f 36/21/2 132/22/2 131/23/2 58/24/2 35/25/2
f 118/26/3 39/27/3 5/28/3 38/29/3
f 67/30/1 66/31/1 127/32/1 85/33/1 96/34/1 55/35/1 54/36/1 11/37/1 56/38/1 58/39/1 57/40/1 138/41/1
f 27/42/4 100/43/4 98/44/4 53/45/4
f 87/46/4 110/47/4 28/48/4 86/49/4
f 60/50/4 137/51/4 40/52/4 129/53/4 39/54/4 118/55/4 37/56/4 91/57/4 12/58/4 75/59/4 13/60/4 113/61/4
f 49/62/3 10/63/3 48/64/3 23/65/3
f 71/66/2 70/67/2 9/68/2 129/69/2 7/70/2 6/71/2 60/72/2 133/73/2 78/74/2 80/75/2 134/76/2 83/77/2 25/78/2 67/79/2 132/22/2 36/21/2 32/80/2 2/81/2 128/82/2 35/25/2 58/24/2 130/83/2 51/84/2 21/85/2
f 15/86/5 14/87/5 41/88/5 8/89/5
f 27/90/5 53/91/5 55/92/5 96/93/5
f 42/94/6 45/95/6 97/96/6 69/97/6
f 98/98/3 54/99/3 55/100/3 53/101/3
f 117/102/4 134/103/4 82/104/4 22/105/4 21/106/4 20/107/4 44/108/4 18/109/4 17/110/4 93/111/4 19/112/4 124/113/4
f 87/114/6 86/115/6 127/116/6 66/117/6
f 83/118/3 134/119/3 117/120/3 64/121/3
f 133/122/3 60/123/3 113/124/3 115/125/3
f 65/126/4 126/127/4 24/128/4 25/129/4 84/130/4 26/131/4 130/132/4 50/133/4 73/134/4 49/135/4 23/136/4 95/137/4
f 125/138/3 124/139/3 19/140/3 103/141/3
f 101/142/6 76/143/6 15/144/6 8/145/6
f 61/146/5 88/147/5 102/148/5 62/149/5
f 79/150/3 77/151/3 76/152/3 61/153/3 62/154/3
f 31/155/4 89/156/4 32/157/4 36/158/4
f 70/159/4 107/160/4 42/161/4 69/162/4 14/163/4 15/164/4 76/165/4 77/166/4 116/167/4 78/168/4 141/169/4 16/170/4
f 85/171/6 100/172/6 27/173/6 96/174/6
f 35/25/3 128/82/3 105/175/3 109/176/3 31/177/3 36/21/3
f 21/178/6 51/179/6 108/180/6 20/181/6
f 129/182/3 40/183/3 135/184/3 7/185/3
f 18/186/3 97/187/3 43/188/3 17/189/3
f 119/190/3 42/191/3 107/192/3 106/193/3
f 56/194/3 11/195/3 28/196/3 110/197/3
f 14/198/3 69/199/3 68/200/3 41/201/3
f 103/202/6 65/203/6 95/204/6 94/205/6
f 16/206/3 139/207/3 9/208/3 70/209/3
f 45/210/3 44/211/3 20/212/3 46/213/3
f 22/214/3 47/215/3 71/216/3 21/217/3
f 73/218/6 11/219/6 54/220/6 49/221/6
f 127/222/3 126/223/3 65/224/3 85/225/3
f 72/226/3 73/227/3 50/228/3 108/229/3
f 12/230/5 91/231/5 3/232/5 90/233/5
f 8/234/1 41/235/1 68/236/1 119/237/1 106/238/1 9/239/1 139/240/1 140/241/1 133/242/1 115/243/1 123/244/1 101/245/1
f 80/246/3 78/247/3 116/248/3 63/249/3
f 13/250/6 121/251/6 111/252/6 113/253/6
f 138/254/6 29/255/6 132/256/6 67/257/6
f 136/258/6 137/259/6 60/260/6 6/261/6
f 10/262/6 18/263/6 44/264/6 72/265/6
f 13/266/3 75/267/3 101/268/3 123/269/3
f 75/270/6 12/271/6 90/272/6 74/273/6
f 116/274/6 77/275/6 123/276/6 115/277/6
f 93/278/5 17/279/5 43/280/5 92/281/5
f 78/282/6 133/283/6 140/284/6 141/285/6
f 63/286/6 117/287/6 124/288/6 79/289/6
f 136/290/1 6/291/1 7/292/1 135/293/1
f 81/294/6 82/295/6 134/296/6 80/297/6
f 22/298/2 82/299/2 81/300/2 47/301/2
f 121/302/2 122/303/2 33/304/2 38/305/2
f 64/306/6 24/307/6 126/308/6 125/309/6
f 95/310/5 23/311/5 48/312/5 94/313/5
f 40/314/2 137/315/2 136/316/2 135/317/2
f 130/318/6 58/319/6 56/320/6 50/321/6
f 59/322/2 29/323/2 138/324/2 57/325/2
f 122/326/1 1/327/1 34/328/1 33/329/1
f 132/330/4 29/331/4 59/332/4 131/333/4
f 16/334/2 141/335/2 140/336/2 139/337/2
f 122/338/6 30/339/6 104/340/6 102/341/6 88/342/6 1/343/6
f 2/344/6 32/345/6 89/346/6 114/347/6 112/348/6
f 130/349/3 26/350/3 52/351/3 51/352/3
f 67/353/3 25/354/3 24/355/3 66/356/3
f 26/357/2 84/358/2 142/359/2 52/360/2
f 142/361/6 84/362/6 25/363/6 83/364/6
f 62/365/6 19/366/6 93/367/6 92/368/6
f 104/369/4 30/370/4 120/371/4 99/372/4
f 59/373/3 57/374/3 58/375/3 131/376/3
f 91/377/3 37/378/3 4/379/3 3/380/3
f 70/381/6 71/382/6 46/383/6 107/384/6
f 129/385/6 9/386/6 106/387/6 39/388/6
f 85/389/5 65/390/5 103/391/5 19/392/5 62/149/5 102/148/5 104/393/5 99/394/5 34/395/5 1/396/5 88/147/5 61/146/5 76/397/5 101/398/5 75/399/5 74/400/5 4/401/5 37/402/5 68/403/5 69/404/5 97/405/5 18/406/5 10/407/5 49/408/5 54/409/5 98/410/5 100/411/5
f 33/412/3 34/413/3 99/414/3 120/415/3
f 114/416/5 63/417/5 116/418/5 115/419/5 113/420/5 111/421/5 5/422/5 39/423/5 106/424/5 107/425/5 46/426/5 20/427/5 108/428/5 50/429/5 56/430/5 110/431/5 109/432/5 105/433/5 112/434/5
f 121/435/1 38/436/1 5/437/1 111/438/1
f 31/439/5 109/432/5 110/431/5 87/440/5 66/441/5 24/442/5 64/443/5 117/444/5 63/417/5 114/416/5 89/445/5
f 83/446/1 64/447/1 125/448/1 103/449/1 94/450/1 48/451/1 10/452/1 72/453/1 108/454/1 51/455/1 52/456/1 142/457/1
f 119/458/2 118/459/2 38/305/2 33/304/2 120/460/2 30/461/2 122/303/2 121/302/2 13/462/2 123/463/2 77/464/2 79/465/2 124/466/2 125/467/2 126/468/2 127/469/2 86/470/2 28/471/2 11/472/2 73/473/2 72/474/2 44/475/2 45/476/2 42/477/2
f 68/478/6 37/479/6 118/480/6 119/481/6
